# xmcd
#
# Track frame offsets: 
#        150
#        9660
#        22070
#        34605
#        47512
#        60420
#        72847
#        86105
#        100650
#        111777
#        124040
#        136640
#        148567
#        158525
#        169407
#        180285
#        192742
#        203750
#        214887
#        227955
#        240207
#
# Disc length: 3360 seconds
#
# Revision: 0
# Processed by: cddbd v1.5.2PL0 Copyright (c) Steve Scherf et al.
# Submitted via: ExactAudioCopy v0.95a5
#
DISCID=170d1e15
DTITLE=Hank Williams - Best Selection
DYEAR=2002
DGENRE=Country
TTITLE0=My Bucket's Got Hole In It
TTITLE1=Move It On Over
TTITLE2=Rootie Tootie
TTITLE3=I Can Get You Off My Mind
TTITLE4=I'm A Long Gone Daddy
TTITLE5=Honky Tonkin'
TTITLE6=Mind Your Own Business
TTITLE7=Lovesick Blues
TTITLE8=Weary Blues
TTITLE9=Lost Highway
TTITLE10=I'm So Lonesome I Could Cry
TTITLE11=Long Gone Lonesome Blues
TTITLE12=Honky Tonk Blues
TTITLE13=I Can't Help It
TTITLE14=Let's Turn Back Years
TTITLE15=I Won't Be Home No More
TTITLE16=My Heart Would Know
TTITLE17=Crazy Heart
TTITLE18=Jambalaya
TTITLE19=Your Cheatin' Heart
TTITLE20=Take These Chains From My Heart
EXTD=
EXTT0=
EXTT1=
EXTT2=
EXTT3=
EXTT4=
EXTT5=
EXTT6=
EXTT7=
EXTT8=
EXTT9=
EXTT10=
EXTT11=
EXTT12=
EXTT13=
EXTT14=
EXTT15=
EXTT16=
EXTT17=
EXTT18=
EXTT19=
EXTT20=
PLAYORDER=
